<svg width="1320" height="152" viewBox="0 0 1320 152" fill="none" xmlns="http://www.w3.org/2000/svg">
<path fill-rule="evenodd" clip-rule="evenodd" d="M8.00036 68.7036C8.61529 68.1764 9.40674 67.9126 10.1099 67.9126C11.429 67.9126 12.7476 68.528 14.0662 69.5828L14.6816 70.1104L16.4396 67.6488L15.9998 67.2089C14.3296 65.8025 12.5716 65.0989 10.5493 65.0989C9.05467 65.0989 7.64828 65.6265 6.2419 66.5057C4.83552 67.4727 3.95629 68.7031 3.69247 70.1977C3.34088 71.7801 3.69247 73.1865 4.83552 74.2413C5.53871 74.945 6.68176 75.5604 8.35196 76.2631C9.58278 76.7907 10.3738 77.2301 10.7253 77.5822C11.1652 78.1098 11.3408 78.812 11.1652 79.6918C10.9892 80.5705 10.5498 81.2742 9.75834 81.7136C9.05515 82.2412 8.2637 82.4172 7.47273 82.4172C5.62649 82.4172 4.04455 81.6258 2.63721 79.8673L2.19783 79.2529L0 81.6258L0.439854 82.0651C1.14305 82.9449 2.10957 83.6485 3.3404 84.263C4.65948 84.8784 5.88983 85.2309 7.12065 85.2309C8.70307 85.2309 10.1095 84.7906 11.4281 83.8236C12.9222 82.8566 13.8897 81.5375 14.1535 79.8673C14.5929 78.1098 14.1535 76.7025 13.0105 75.5604C12.3951 74.945 11.1642 74.2413 9.40578 73.5381H9.318C7.29621 72.6589 6.41698 71.6919 6.59254 70.6371C6.76954 69.8461 7.20939 69.1429 8.00036 68.7036ZM26.198 60H23.2092L21.9783 65.5382H17.9347L17.3193 68.2637H21.3634L19.1656 78.7252C18.6379 81.0981 18.814 82.8566 19.781 83.9114C20.3964 84.7901 21.5394 85.2305 23.0341 85.2305C25.7591 85.2305 28.1329 83.7353 30.2425 80.7465L30.8579 79.8668L27.8691 79.1641L27.6053 79.6035C26.2862 81.4493 24.8803 82.4167 23.3857 82.4167C22.7703 82.4167 22.3304 82.3285 22.0666 81.9774C21.8028 81.6253 21.715 80.9216 21.9783 79.9546L24.44 68.2627H30.9457L31.5611 65.5373H24.9671L26.198 60ZM46.5934 67.0334C45.5386 65.7143 44.1313 65.0989 42.286 65.0989C39.6483 65.0989 37.3627 66.2414 35.5164 68.352C33.934 70.1982 32.8792 72.4838 32.3516 75.121C31.4724 78.6374 31.9117 81.2747 33.4064 83.2082C34.549 84.5273 36.1319 85.2309 38.2414 85.2309C40.0877 85.2309 42.4606 84.7024 45.186 83.5607L45.8015 83.2964L45.0978 80.3081L44.3073 80.7475C42.1977 81.8905 40.2632 82.4177 38.593 82.4177C37.3622 82.4177 36.4834 82.0656 35.9558 81.4497C35.0766 80.4827 34.8128 78.7252 35.1644 76.1753H47.3839L47.5599 75.5604C48.3509 71.6924 47.9993 68.7913 46.5934 67.0334ZM41.8452 67.9121C42.8131 67.9121 43.6036 68.2637 44.219 69.0551C45.0105 70.1104 45.2738 71.5168 44.9227 73.3626H35.7798C36.2196 71.8679 37.0106 70.6371 38.0659 69.5823C39.2967 68.5275 40.527 67.9121 41.8452 67.9121ZM59.2518 65.0989C57.4943 65.0989 55.9109 65.7143 54.5928 66.9451V65.0116L51.6035 65.4509V66.1546C51.7795 67.9126 51.6035 70.0226 51.0759 72.3082L46.8562 92H49.9338L51.603 84.2635C52.6974 84.9006 53.9418 85.2347 55.2082 85.2314C57.054 85.2314 58.9002 84.44 60.5709 83.0336C62.7687 81.1869 64.1751 78.7262 64.8783 75.4731C65.6688 71.8689 65.3177 69.1439 63.7352 67.2094C62.5927 65.8025 61.0985 65.0989 59.2518 65.0989ZM54.329 71.0769C55.8241 68.9674 57.3182 67.9121 58.9007 67.9121C59.8677 67.9121 60.6591 68.352 61.2736 69.0551C62.3284 70.286 62.4166 72.3078 61.889 75.0328C61.2736 78.1098 60.0432 80.2194 58.1087 81.4497C57.1417 82.0651 56.0869 82.4177 55.0322 82.4177C54.0652 82.4177 53.0986 81.9783 52.2189 81.0986L54.329 71.0769ZM74.5488 73.5386C72.4393 72.6594 71.4713 71.6924 71.7356 70.6376C71.9116 69.8466 72.351 69.1434 73.0537 68.7036C73.7574 68.1764 74.4611 67.9126 75.2515 67.9126C76.5706 67.9126 77.8888 68.528 79.2078 69.5828L79.8232 70.1104L81.5817 67.6488L81.1423 67.2089C79.4721 65.8025 77.6254 65.0989 75.6919 65.0989C74.1968 65.0989 72.7904 65.6265 71.3835 66.5057C69.9771 67.4727 69.0984 68.7031 68.8346 70.1977C68.4835 71.7801 68.8346 73.1865 70.0654 74.2413C70.6808 74.8567 71.8239 75.5604 73.4941 76.2631L75.867 77.5822C76.3063 78.1098 76.4824 78.812 76.3063 79.6918C76.1313 80.5705 75.6036 81.2742 74.9 81.7136C74.1963 82.2412 73.4058 82.4172 72.6139 82.4172C70.7681 82.4172 69.1862 81.6258 67.8671 79.8673L67.3394 79.2529L65.2299 81.6258L65.581 82.0651C66.2847 82.9449 67.2512 83.6485 68.4825 84.263C69.7133 84.8784 71.0314 85.2309 72.2627 85.2309C73.8452 85.2309 75.2511 84.7906 76.5702 83.8236C78.0643 82.8566 79.0313 81.5375 79.2956 79.8673C79.735 78.1098 79.2956 76.7025 78.2408 75.5604C77.5372 74.9455 76.3063 74.2418 74.5488 73.5386Z" fill="#00B307"/>
<line x1="162.319" y1="60" x2="162.319" y2="92" stroke="#E6E6E6"/>
<path fill-rule="evenodd" clip-rule="evenodd" d="M243.505 64.4306H247.711C247.334 64.1738 246.625 63.8467 245.457 63.8467C244.612 63.8467 243.979 64.0826 243.505 64.4306ZM248.417 64.4306H252.816C252.298 64.0826 251.572 63.8467 250.559 63.8467C249.488 63.8467 248.796 64.1738 248.417 64.4306ZM242.911 65.0146H253.445C253.268 64.7875 253.055 64.5903 252.816 64.4306H248.417C248.172 64.5963 248.058 64.7325 248.058 64.7325C248.058 64.7325 247.953 64.5963 247.711 64.4306H243.505C243.28 64.5964 243.081 64.793 242.911 65.0146Z" fill="#CCCCCC"/>
<path fill-rule="evenodd" clip-rule="evenodd" d="M242.559 65.5789H253.787C253.695 65.3784 253.58 65.1893 253.445 65.0151H242.911C242.771 65.1967 242.655 65.388 242.559 65.5789Z" fill="#CCCCCC"/>
<path fill-rule="evenodd" clip-rule="evenodd" d="M242.319 66.1621H253.991C253.941 65.9615 253.872 65.7661 253.786 65.5781H242.559C242.459 65.7768 242.38 65.975 242.319 66.1621ZM242.166 66.7464H244.853C245.026 66.5454 245.311 66.3638 245.777 66.3638C246.243 66.3638 246.509 66.5458 246.659 66.7464H249.637C249.813 66.5454 250.103 66.3638 250.578 66.3638C251.026 66.3638 251.294 66.5458 251.453 66.7464H254.09C254.072 66.5495 254.039 66.3543 253.991 66.1625H242.319C242.256 66.3538 242.205 66.5488 242.166 66.7464Z" fill="#CCCCCC"/>
<path fill-rule="evenodd" clip-rule="evenodd" d="M242.096 67.3103H244.597V67.27C244.597 67.27 244.64 66.9941 244.853 66.7466H242.166C242.105 67.0612 242.096 67.27 242.096 67.27V67.3103ZM246.858 67.3103H249.379V67.27C249.379 67.27 249.422 66.9941 249.638 66.7466H246.66C246.773 66.8997 246.841 67.0807 246.858 67.27V67.3103H246.858ZM251.679 67.3103H254.099V67.27C254.099 67.27 254.119 67.0609 254.09 66.7466H251.453C251.648 66.9941 251.679 67.27 251.679 67.27V67.3103ZM242.095 67.8943H244.597V67.3103H242.096L242.095 67.8943ZM246.858 67.8943H249.379V67.3103H246.858V67.8943ZM251.679 67.8943H254.099V67.3103H251.679V67.8943Z" fill="#CCCCCC"/>
<path fill-rule="evenodd" clip-rule="evenodd" d="M242.094 68.479H244.597V67.895H242.095L242.094 68.479ZM246.858 68.479H249.379V67.895H246.858V68.479ZM251.679 68.479H254.099V67.895H251.679V68.479ZM242.092 69.0427H244.597V68.479H242.094L242.092 69.0427ZM246.858 69.0427H249.379V68.479H246.858V69.0427ZM251.679 69.0427H254.099V68.479H251.679V69.0427Z" fill="#CCCCCC"/>
<path fill-rule="evenodd" clip-rule="evenodd" d="M242.092 69.6259H244.597V69.042H242.092L242.092 69.6259ZM246.858 69.6259H249.379V69.042H246.858V69.6259ZM251.679 69.6259H254.099V69.042H251.679V69.6259ZM242.09 70.1897H244.597V69.6259H242.092L242.09 70.1897ZM246.858 70.1897H249.379V69.6259H246.858V70.1897ZM251.679 70.1897H254.099V69.6259H251.679V70.1897Z" fill="#CCCCCC"/>
<path fill-rule="evenodd" clip-rule="evenodd" d="M242.089 70.7743H244.597V70.1899H242.09L242.089 70.7743ZM246.858 70.7743H249.379V70.1899H246.858V70.7743ZM251.679 70.7743H254.099V70.1899H251.679V70.7743ZM242.088 71.3582H244.597V70.7743H242.089L242.088 71.3582ZM246.858 71.3582H249.379V70.7743H246.858V71.3582ZM251.679 71.3582H254.099V70.7743H251.679V71.3582Z" fill="#CCCCCC"/>
<path fill-rule="evenodd" clip-rule="evenodd" d="M242.086 71.9217H244.597V71.3579H242.088L242.086 71.9217ZM246.858 71.9217H249.378V71.3579H246.858V71.9217ZM251.679 71.9217H254.099V71.3579H251.679V71.9217Z" fill="#CCCCCC"/>
<path fill-rule="evenodd" clip-rule="evenodd" d="M242.085 72.5062H244.597V71.9219H242.086L242.085 72.5062ZM246.858 72.5062H249.379V71.9219H246.858V72.5062ZM251.679 72.5062H254.099V71.9219H251.679V72.5062Z" fill="#CCCCCC"/>
<path fill-rule="evenodd" clip-rule="evenodd" d="M242.084 73.0898H244.597V72.5059H242.085L242.084 73.0898ZM246.858 73.0898H249.379V72.5059H246.858V73.0898ZM251.679 73.0898H254.099V72.5059H251.679V73.0898Z" fill="#CCCCCC"/>
<path fill-rule="evenodd" clip-rule="evenodd" d="M242.083 73.6536H244.597V73.0898H242.084L242.083 73.6536ZM246.858 73.6536H249.379V73.0898H246.858V73.6536ZM251.679 73.6536H254.099V73.0898H251.679V73.6536ZM242.082 74.2375H244.597V73.6536H242.083L242.082 74.2375ZM246.858 74.2375H249.379V73.6536H246.858V74.2375ZM251.679 74.2375H254.099V73.6536H251.679V74.2375ZM242.08 74.8219H244.597V74.2379H242.082L242.08 74.8219ZM246.858 74.8219H249.379V74.2379H246.858V74.8219ZM251.679 74.8219H254.099V74.2379H251.679V74.8219Z" fill="#CCCCCC"/>
<path fill-rule="evenodd" clip-rule="evenodd" d="M242.079 75.3855H244.597V74.8218H242.08L242.079 75.3855ZM246.858 75.3855H249.379V74.8218H246.858V75.3855ZM251.679 75.3855H254.099V74.8218H251.679V75.3855ZM242.078 75.9695H244.597V75.3855H242.079L242.078 75.9695ZM246.858 75.9695H249.379V75.3855H246.858V75.9695ZM251.679 75.9695H254.099V75.3855H251.679V75.9695Z" fill="#CCCCCC"/>
<path fill-rule="evenodd" clip-rule="evenodd" d="M242.076 76.5537H244.597V75.9697H242.078L242.076 76.5537ZM246.858 76.5537H249.379V75.9697H246.858V76.5537ZM251.679 76.5537H254.099V75.9697H251.679V76.5537Z" fill="#CCCCCC"/>
<path fill-rule="evenodd" clip-rule="evenodd" d="M242.075 77.117H244.597V76.5532H242.076L242.075 77.117ZM246.858 77.117H249.378V76.5532H246.858V77.117ZM251.679 77.117H254.099V76.5532H251.679V77.117ZM242.074 77.7013H244.597V77.117H242.075L242.074 77.7013ZM246.858 77.7013H249.378V77.117H246.858V77.7013ZM251.679 77.7013H254.099V77.117H251.679V77.7013Z" fill="#CCCCCC"/>
<path fill-rule="evenodd" clip-rule="evenodd" d="M242.073 78.2654H244.597V77.7017H242.074L242.073 78.2654ZM246.858 78.2654H249.379V77.7017H246.858V78.2654ZM251.679 78.2654H254.099V77.7017H251.679V78.2654ZM242.071 78.8497H244.597V78.2654H242.073L242.071 78.8497ZM246.858 78.8497H249.379V78.2654H246.858V78.8497ZM251.679 78.8497H254.099V78.2654H251.679V78.8497ZM242.07 79.4333H244.597V78.8497H242.071L242.07 79.4333ZM246.858 79.4333H249.379V78.8497H246.858V79.4333ZM251.679 79.4333H254.099V78.8497H251.679V79.4333Z" fill="#CCCCCC"/>
<path fill-rule="evenodd" clip-rule="evenodd" d="M242.069 79.9981H244.597V79.4336H242.07L242.069 79.9981ZM246.858 79.9981H249.379V79.4336H246.858V79.9981ZM251.679 79.9981H254.099V79.4336H251.679V79.9981ZM242.067 80.5817H244.597V79.9981H242.068L242.067 80.5817ZM246.858 80.5817H249.379V79.9981H246.858V80.5817ZM251.679 80.5817H254.099V79.9981H251.679V80.5817Z" fill="#CCCCCC"/>
<path fill-rule="evenodd" clip-rule="evenodd" d="M242.066 81.1654H244.597V80.5811H242.067L242.066 81.1654ZM246.858 81.1654H249.379V80.5811H246.858V81.1654ZM251.679 81.1654H254.099V80.5811H251.679V81.1654ZM242.065 81.7295H244.597V81.1658H242.066L242.065 81.7295ZM246.858 81.7295H249.379V81.1658H246.858V81.7295ZM251.679 81.7295H254.099V81.1658H251.679V81.7295Z" fill="#CCCCCC"/>
<path fill-rule="evenodd" clip-rule="evenodd" d="M242.064 82.3138H244.597V81.7295H242.065L242.064 82.3138ZM246.858 82.3138H249.379V81.7295H246.858V82.3138ZM251.679 82.3138H254.099V81.7295H251.679V82.3138Z" fill="#CCCCCC"/>
<path fill-rule="evenodd" clip-rule="evenodd" d="M242.062 82.897H244.597V82.3135H242.064L242.062 82.897ZM246.858 82.897H249.378V82.3135H246.858V82.897ZM251.679 82.897H254.099V82.3135H251.679V82.897ZM242.061 83.4608H244.597V82.897H242.062L242.061 83.4608ZM246.858 83.4608H249.378V82.897H246.858V83.4608ZM251.679 83.4608H254.099V82.897H251.679V83.4608Z" fill="#CCCCCC"/>
<path fill-rule="evenodd" clip-rule="evenodd" d="M242.06 84.0453H244.597V83.4609H242.061L242.06 84.0453ZM246.858 84.0453H249.378V83.4609H246.858V84.0453ZM251.679 84.0453H254.099V83.4609H251.679V84.0453ZM242.059 84.6296H244.597V84.0453H242.06L242.059 84.6296ZM246.858 84.6296H249.378V84.0453H246.858V84.6296ZM251.679 84.6296H254.099V84.0453H251.679V84.6296ZM242.058 85.1933H244.597V84.6296H242.059L242.058 85.1933ZM246.858 85.1933H249.378V84.6296H246.858V85.1933ZM251.679 85.1933H254.099V84.6296H251.679V85.1933Z" fill="#CCCCCC"/>
<path fill-rule="evenodd" clip-rule="evenodd" d="M242.057 85.7764H244.597V85.1929H242.058L242.057 85.7764ZM246.858 85.7764H249.379V85.1929H246.858V85.7764ZM251.679 85.7764H254.099V85.1929H251.679V85.7764Z" fill="#CCCCCC"/>
<path fill-rule="evenodd" clip-rule="evenodd" d="M272.724 63.6049H273.055L272.724 63.021V63.6049ZM272.724 64.209H273.397L273.055 63.6049H272.724V64.209Z" fill="#CCCCCC"/>
<path fill-rule="evenodd" clip-rule="evenodd" d="M272.724 64.8131H273.739L273.397 64.209H272.724V64.8131ZM277.626 64.8131H279.986V64.2292H277.626V64.8131Z" fill="#CCCCCC"/>
<path fill-rule="evenodd" clip-rule="evenodd" d="M272.724 65.4175H274.081L273.739 64.813H272.724V65.4175ZM277.626 65.4175H279.986V64.813H277.626V65.4175Z" fill="#CCCCCC"/>
<path fill-rule="evenodd" clip-rule="evenodd" d="M272.724 66.0014H274.411L274.081 65.4175H272.724V66.0014ZM277.626 66.0014H279.986V65.4175H277.626V66.0014Z" fill="#CCCCCC"/>
<path fill-rule="evenodd" clip-rule="evenodd" d="M272.724 66.6056H274.753L274.411 66.0015H272.724V66.6056ZM277.626 66.6056H279.986V66.0015H277.626V66.6056ZM272.724 67.2097H275.095L274.753 66.6056H272.724V67.2097ZM277.626 67.2097H279.986V66.6056H277.626V67.2097Z" fill="#CCCCCC"/>
<path fill-rule="evenodd" clip-rule="evenodd" d="M272.724 67.8132H275.437L275.095 67.2095H272.724V67.8132ZM277.626 67.8132H279.986V67.2095H277.626V67.8132ZM272.724 68.3975H275.768L275.437 67.8132H272.724V68.3975H272.724ZM277.626 68.3975H279.986V67.8132H277.626V68.3975Z" fill="#CCCCCC"/>
<path fill-rule="evenodd" clip-rule="evenodd" d="M272.724 69.0021H276.109L275.768 68.3979H272.724V69.0021ZM277.626 69.0021H279.986V68.3979H277.626V69.0021ZM272.724 69.6062H276.452L276.109 69.0021H272.724V69.6062ZM277.626 69.6062H279.986V69.0021H277.626V69.6062Z" fill="#CCCCCC"/>
<path fill-rule="evenodd" clip-rule="evenodd" d="M272.724 70.2105H276.794L276.452 69.606H272.724V70.2105ZM277.626 70.2105H279.986V69.606H277.626V70.2105Z" fill="#CCCCCC"/>
<path fill-rule="evenodd" clip-rule="evenodd" d="M272.724 70.7939H277.124L276.793 70.21H272.724V70.7939ZM277.626 70.7939H279.986V70.21H277.626V70.7939ZM272.724 71.398H277.466L277.124 70.7939H272.724V71.398ZM277.626 71.398H279.986V70.7939H277.626V71.398Z" fill="#CCCCCC"/>
<path fill-rule="evenodd" clip-rule="evenodd" d="M272.724 72.0021H279.986V71.3979H277.626V71.6804L277.466 71.3979H272.724V72.0021ZM272.724 72.6062H275.045V72.0626L275.395 72.6062H279.986V72.0021H272.724V72.6062Z" fill="#CCCCCC"/>
<path fill-rule="evenodd" clip-rule="evenodd" d="M272.724 73.1909H275.045V72.6069H272.724V73.1909ZM275.77 73.1909H279.986V72.6069H275.395L275.77 73.1909Z" fill="#CCCCCC"/>
<path fill-rule="evenodd" clip-rule="evenodd" d="M272.724 73.795H275.045V73.1909H272.724V73.795ZM276.159 73.795H279.986V73.1909H275.77L276.159 73.795Z" fill="#CCCCCC"/>
<path fill-rule="evenodd" clip-rule="evenodd" d="M272.724 74.3985H275.045V73.7944H272.724V74.3985ZM276.547 74.3985H279.986V73.7944H276.159L276.547 74.3985Z" fill="#CCCCCC"/>
<path fill-rule="evenodd" clip-rule="evenodd" d="M272.724 74.9833H275.045V74.3989H272.724V74.9833ZM276.923 74.9833H279.986V74.3989H276.547L276.923 74.9833Z" fill="#CCCCCC"/>
<path fill-rule="evenodd" clip-rule="evenodd" d="M272.724 75.587H275.045V74.9829H272.724V75.587ZM277.311 75.587H279.986V74.9829H276.923L277.311 75.587Z" fill="#CCCCCC"/>
<path fill-rule="evenodd" clip-rule="evenodd" d="M272.724 76.191H275.045V75.5869H272.724V76.191ZM277.7 76.191H279.986V75.5869H277.311L277.7 76.191ZM272.724 76.7951H275.045V76.191H272.724V76.7951ZM277.726 76.7951H279.986V76.191H277.7L277.725 76.2314V76.7951H277.726ZM272.724 77.3795H275.045V76.7951H272.724V77.3795ZM277.726 77.3795H279.986V76.7951H277.726V77.3795Z" fill="#CCCCCC"/>
<path fill-rule="evenodd" clip-rule="evenodd" d="M272.724 77.983H275.045V77.3789H272.724V77.983ZM277.726 77.983H279.986V77.3789H277.726V77.983ZM272.724 78.5871H275.045V77.983H272.724V78.5871ZM277.726 78.5871H279.986V77.983H277.726V78.5871Z" fill="#CCCCCC"/>
<path fill-rule="evenodd" clip-rule="evenodd" d="M272.724 79.1918H275.045V78.5869H272.724V79.1918ZM277.726 79.1918H279.986V78.5869H277.726V79.1918Z" fill="#CCCCCC"/>
<path fill-rule="evenodd" clip-rule="evenodd" d="M272.724 79.7754H275.045V79.1919H272.724V79.7754ZM277.726 79.7754H279.986V79.1919H277.726V79.7754ZM272.724 80.3803H275.045V79.7754H272.724V80.3803ZM277.726 80.3803H279.986V79.7754H277.726V80.3803Z" fill="#CCCCCC"/>
<path fill-rule="evenodd" clip-rule="evenodd" d="M272.724 80.9845H275.045V80.3804H272.724V80.9845ZM277.726 80.9845H279.986V80.3804H277.726V80.9845Z" fill="#CCCCCC"/>
<path fill-rule="evenodd" clip-rule="evenodd" d="M272.724 81.588H275.045V80.9839H272.724V81.588ZM277.726 81.588H279.986V80.9839H277.726V81.588ZM272.724 82.1723H275.045V81.588H272.724V82.1723ZM277.726 82.1723H279.986V81.588H277.726V82.1723Z" fill="#CCCCCC"/>
<path fill-rule="evenodd" clip-rule="evenodd" d="M272.724 82.777H275.045V82.1729H272.724V82.777ZM277.726 82.777H279.986V82.1729H277.726V82.777Z" fill="#CCCCCC"/>
<path fill-rule="evenodd" clip-rule="evenodd" d="M272.724 83.3805H275.045V82.7764H272.724V83.3805ZM277.726 83.3805H279.986V82.7764H277.726V83.3805Z" fill="#CCCCCC"/>
<path fill-rule="evenodd" clip-rule="evenodd" d="M272.724 83.9845H275.045V83.3804H272.724V83.9845ZM277.726 83.9845H279.986V83.3804H277.726V83.9845Z" fill="#CCCCCC"/>
<path fill-rule="evenodd" clip-rule="evenodd" d="M272.724 84.5692H275.045V83.9849H272.724V84.5692ZM277.726 84.5692H279.986V83.9849H277.726V84.5692ZM272.724 85.1733H275.045V84.5692H272.724V85.1733ZM277.726 85.1733H279.986V84.5692H277.726V85.1733Z" fill="#CCCCCC"/>
<path fill-rule="evenodd" clip-rule="evenodd" d="M272.724 85.777H275.045V85.1729H272.724V85.777ZM277.726 85.777H279.986V85.1729H277.726V85.777Z" fill="#CCCCCC"/>
<path fill-rule="evenodd" clip-rule="evenodd" d="M293.957 60.8462H295.81V60C295.81 60 295.064 60.2553 293.957 60.8462Z" fill="#CCCCCC"/>
<path fill-rule="evenodd" clip-rule="evenodd" d="M292.525 61.6916H295.81V60.8462H293.957C293.468 61.1073 292.99 61.3893 292.525 61.6916Z" fill="#CCCCCC"/>
<path fill-rule="evenodd" clip-rule="evenodd" d="M291.351 62.5176H295.81V61.6919H292.525C292.124 61.9528 291.732 62.2282 291.351 62.5176ZM290.316 63.3634H295.81V62.5176H291.351C290.996 62.7874 290.651 63.0695 290.316 63.3634ZM289.416 64.2092H294.919C295.465 63.9528 295.81 63.8468 295.81 63.8468V63.3634H290.316C290.006 63.6349 289.706 63.917 289.416 64.2092Z" fill="#CCCCCC"/>
<path fill-rule="evenodd" clip-rule="evenodd" d="M288.628 65.0547H293.417C293.897 64.737 294.398 64.4542 294.919 64.2085H289.415C289.144 64.4819 288.881 64.7641 288.628 65.0547ZM287.939 65.9006H292.282C292.644 65.5975 293.023 65.3152 293.417 65.0551H288.628C288.389 65.3294 288.16 65.6113 287.939 65.9006Z" fill="#CCCCCC"/>
<path fill-rule="evenodd" clip-rule="evenodd" d="M287.335 66.7462H291.368C291.658 66.4488 291.963 66.1665 292.282 65.9004H287.94C287.729 66.1758 287.527 66.4579 287.335 66.7462ZM286.818 67.5719H290.635C290.867 67.2855 291.112 67.01 291.369 66.7462H287.335C287.157 67.012 286.985 67.2871 286.818 67.5719Z" fill="#CCCCCC"/>
<path fill-rule="evenodd" clip-rule="evenodd" d="M286.356 68.4176H290.008C290.205 68.1267 290.414 67.8445 290.635 67.5718H286.818C286.656 67.8492 286.502 68.1312 286.356 68.4176ZM285.958 69.2638H289.489C289.656 68.9674 289.829 68.6857 290.009 68.418H286.357C286.217 68.6919 286.084 68.9736 285.958 69.2638Z" fill="#CCCCCC"/>
<path fill-rule="evenodd" clip-rule="evenodd" d="M285.617 70.1095H289.058C289.191 69.8222 289.334 69.5401 289.488 69.2637H285.958C285.836 69.5425 285.723 69.8245 285.617 70.1095Z" fill="#CCCCCC"/>
<path fill-rule="evenodd" clip-rule="evenodd" d="M285.33 70.9547H288.706C288.815 70.6622 288.933 70.3797 289.058 70.1089H285.616C285.515 70.3844 285.42 70.6664 285.33 70.9547ZM285.098 71.7804H288.427C288.513 71.496 288.606 71.2209 288.706 70.9547H285.33C285.246 71.2279 285.168 71.5032 285.098 71.7804Z" fill="#CCCCCC"/>
<path fill-rule="evenodd" clip-rule="evenodd" d="M284.905 72.6266H288.203C288.271 72.336 288.345 72.0539 288.427 71.7808H285.098C285.027 72.061 284.962 72.3431 284.905 72.6266ZM284.757 73.4724H288.033C288.083 73.1822 288.139 72.9005 288.203 72.6266H284.905C284.85 72.9032 284.8 73.1853 284.757 73.4724Z" fill="#CCCCCC"/>
<path fill-rule="evenodd" clip-rule="evenodd" d="M284.651 74.318H287.914C287.947 74.0286 287.987 73.7465 288.033 73.4722H284.757C284.715 73.7533 284.68 74.0353 284.651 74.318ZM284.581 75.1638H287.842C287.859 74.8752 287.883 74.5931 287.915 74.318H284.652C284.622 74.5994 284.598 74.8814 284.581 75.1638ZM284.552 75.9895H287.811C287.815 75.7086 287.825 75.4331 287.842 75.1642H284.581C284.566 75.4391 284.556 75.7142 284.552 75.9895Z" fill="#CCCCCC"/>
<path fill-rule="evenodd" clip-rule="evenodd" d="M284.554 76.8351H287.82C287.812 76.6338 287.808 76.4324 287.808 76.231C287.808 76.1499 287.81 76.07 287.811 75.9893H284.552C284.551 76.1029 284.547 76.2166 284.547 76.3319C284.547 76.5018 284.551 76.6694 284.554 76.8351ZM292.549 76.8351H295.81V76.3319H292.549V76.8351Z" fill="#CCCCCC"/>
<path fill-rule="evenodd" clip-rule="evenodd" d="M284.598 77.6821H287.88C287.852 77.4005 287.832 77.1182 287.821 76.8354H284.555C284.563 77.1226 284.577 77.4046 284.598 77.6821ZM292.549 77.6821H295.81V76.8354H292.549V77.6821Z" fill="#CCCCCC"/>
<path fill-rule="evenodd" clip-rule="evenodd" d="M284.676 78.528H287.989C287.944 78.2472 287.908 77.9651 287.88 77.6821H284.598C284.618 77.9685 284.644 78.2513 284.676 78.528ZM292.549 78.528H295.81V77.6821H292.549V78.528Z" fill="#CCCCCC"/>
<path fill-rule="evenodd" clip-rule="evenodd" d="M284.801 79.3732H288.153C288.09 79.093 288.035 78.8109 287.99 78.5273H284.676C284.711 78.8149 284.754 79.0965 284.801 79.3732ZM292.549 79.3732H295.81V78.5273H292.549V79.3732Z" fill="#CCCCCC"/>
<path fill-rule="evenodd" clip-rule="evenodd" d="M284.97 80.2189H288.376C288.292 79.9395 288.218 79.6574 288.153 79.373H284.801C284.851 79.6609 284.908 79.943 284.97 80.2189ZM292.549 80.2189H295.81V79.373H292.549V80.2189Z" fill="#CCCCCC"/>
<path fill-rule="evenodd" clip-rule="evenodd" d="M285.18 81.0445H288.653C288.551 80.7727 288.459 80.4974 288.376 80.2192H284.971C285.034 80.5005 285.104 80.7756 285.18 81.0445ZM292.549 81.0445H295.81V80.2192H292.549V81.0445ZM285.446 81.8911H289.006C288.878 81.6131 288.761 81.3308 288.653 81.0445H285.18C285.262 81.3332 285.351 81.616 285.446 81.8911ZM292.549 81.8911H295.81V81.0445H292.549V81.8911Z" fill="#CCCCCC"/>
<path fill-rule="evenodd" clip-rule="evenodd" d="M285.768 82.7365H289.434C289.28 82.46 289.137 82.1778 289.005 81.8906H285.446C285.547 82.1797 285.654 82.4614 285.768 82.7365ZM292.549 82.7365H295.81V81.8906H292.549V82.7365Z" fill="#CCCCCC"/>
<path fill-rule="evenodd" clip-rule="evenodd" d="M286.151 83.5822H289.948C289.766 83.307 289.594 83.0248 289.434 82.7363H285.769C285.889 83.0258 286.017 83.3079 286.151 83.5822ZM292.549 83.5822H295.81V82.7363H292.549V83.5822Z" fill="#CCCCCC"/>
<path fill-rule="evenodd" clip-rule="evenodd" d="M286.599 84.4279H290.562C290.345 84.1548 290.14 83.8726 289.948 83.582H286.151C286.294 83.873 286.444 84.1543 286.599 84.4279ZM292.549 84.4279H295.81V83.582H292.549V84.4279Z" fill="#CCCCCC"/>
<path fill-rule="evenodd" clip-rule="evenodd" d="M287.105 85.2535H291.278C291.027 84.9894 290.788 84.714 290.561 84.4282H286.599C286.758 84.7088 286.927 84.9841 287.105 85.2535ZM292.549 85.2535H295.81V84.4282H292.549V85.2535Z" fill="#CCCCCC"/>
<path fill-rule="evenodd" clip-rule="evenodd" d="M287.703 86.0995H292.182C291.864 85.8356 291.562 85.5529 291.278 85.2529H287.105C287.295 85.5417 287.495 85.824 287.703 86.0995ZM292.549 86.0995H295.81V85.2529H292.549V86.0995Z" fill="#CCCCCC"/>
<path fill-rule="evenodd" clip-rule="evenodd" d="M288.39 86.9454H295.81V86.0996H292.549V86.3817C292.549 86.3817 292.412 86.2886 292.182 86.0996H287.703C287.923 86.3892 288.152 86.6713 288.39 86.9454Z" fill="#CCCCCC"/>
<path fill-rule="evenodd" clip-rule="evenodd" d="M289.181 87.7911H295.81V86.9453H288.39C288.649 87.2425 288.913 87.5234 289.181 87.7911Z" fill="#CCCCCC"/>
<path fill-rule="evenodd" clip-rule="evenodd" d="M290.092 88.6369H295.81V87.791H289.181C289.475 88.0837 289.779 88.3658 290.092 88.6369Z" fill="#CCCCCC"/>
<path fill-rule="evenodd" clip-rule="evenodd" d="M291.149 89.4826H295.81V88.6367H290.093C290.434 88.9319 290.786 89.214 291.149 89.4826ZM292.357 90.3086H295.81V89.4826H291.149C291.541 89.7732 291.944 90.0487 292.357 90.3086ZM293.847 91.1544H295.81V90.3086H292.357C292.893 90.6442 293.397 90.9255 293.847 91.1544Z" fill="#CCCCCC"/>
<path fill-rule="evenodd" clip-rule="evenodd" d="M295.81 92.0001V91.1543H293.846C295.015 91.7495 295.81 92.0001 295.81 92.0001Z" fill="#CCCCCC"/>
<path fill-rule="evenodd" clip-rule="evenodd" d="M301.352 77.158H303.732V76.9966H301.352V77.158ZM306.513 77.158H308.994V76.9966H306.513V77.158ZM301.352 77.7415H303.732V77.158H301.352V77.7415ZM306.513 77.7415H308.994V77.158H306.513V77.7415Z" fill="#CCCCCC"/>
<path fill-rule="evenodd" clip-rule="evenodd" d="M301.352 78.326H303.732V77.7417H301.352V78.326ZM306.513 78.326H308.994V77.7417H306.513V78.326Z" fill="#CCCCCC"/>
<path fill-rule="evenodd" clip-rule="evenodd" d="M301.352 78.9092H303.732V78.3257H301.352V78.9092ZM306.513 78.9092H308.994V78.3257H306.513V78.9092ZM301.352 79.4936H303.732V78.9092H301.352V79.4936ZM306.513 79.4936H308.994V78.9092H306.513V79.4936Z" fill="#CCCCCC"/>
<path fill-rule="evenodd" clip-rule="evenodd" d="M301.352 80.0785H303.732V79.4941H301.352V80.0785ZM306.513 80.0785H308.994V79.4941H306.513V80.0785ZM301.352 80.6628H303.732V80.0785H301.352V80.6628ZM306.513 80.6628H308.994V80.0785H306.513V80.6628Z" fill="#CCCCCC"/>
<path fill-rule="evenodd" clip-rule="evenodd" d="M301.352 81.2457H303.732V80.6621H301.352V81.2457ZM306.513 81.2457H308.994V80.6621H306.513V81.2457ZM301.352 81.8498H303.732V81.2457H301.352V81.8498ZM306.513 81.8498H308.994V81.2457H306.513V81.8498ZM301.352 82.4341H303.732V81.8498H301.352V82.4341ZM306.513 82.4341H308.994V81.8498H306.513V82.4341Z" fill="#CCCCCC"/>
<path fill-rule="evenodd" clip-rule="evenodd" d="M301.41 83.0184H303.993C303.781 82.7243 303.732 82.4341 303.732 82.4341H301.352C301.352 82.4341 301.348 82.6696 301.41 83.0184ZM306.407 83.0184H308.952C308.981 82.8244 308.991 82.6653 308.994 82.5629V82.4341H306.513C306.513 82.4341 306.542 82.7243 306.407 83.0184ZM301.56 83.602H304.984C304.482 83.5298 304.176 83.2729 303.993 83.0184H301.41C301.441 83.1903 301.488 83.3897 301.56 83.602ZM305.561 83.602H308.819C308.885 83.3897 308.926 83.1903 308.952 83.0184H306.407C306.291 83.2729 306.05 83.5298 305.561 83.602Z" fill="#CCCCCC"/>
<path fill-rule="evenodd" clip-rule="evenodd" d="M301.814 84.1864H308.584C308.685 83.9885 308.762 83.7902 308.819 83.6021H305.561C305.37 83.6299 305.175 83.6299 304.984 83.6021H301.56C301.624 83.7898 301.706 83.9885 301.814 84.1864Z" fill="#CCCCCC"/>
<path fill-rule="evenodd" clip-rule="evenodd" d="M302.221 84.7704H308.196C308.347 84.5907 308.477 84.3947 308.584 84.186H301.814C301.928 84.3952 302.064 84.5911 302.221 84.7704ZM302.905 85.3539H307.531C307.781 85.1939 308.005 84.9971 308.196 84.7704H302.221C302.419 84.9973 302.65 85.1939 302.905 85.3539Z" fill="#CCCCCC"/>
<path fill-rule="evenodd" clip-rule="evenodd" d="M307.531 85.3535H302.905C303.46 85.7019 304.212 85.9378 305.232 85.9378C306.248 85.9378 306.99 85.7023 307.531 85.3535Z" fill="#CCCCCC"/>
<path fill-rule="evenodd" clip-rule="evenodd" d="M302.893 64.2695H307.47C306.916 63.9203 306.161 63.6855 305.133 63.6855C304.155 63.6852 303.431 63.9203 302.893 64.2695ZM302.229 64.8534H308.151C307.954 64.6261 307.724 64.4293 307.47 64.2695H302.893C302.644 64.4307 302.42 64.6274 302.229 64.8534Z" fill="#CCCCCC"/>
<path fill-rule="evenodd" clip-rule="evenodd" d="M301.831 65.4375H308.549C308.439 65.2287 308.305 65.0329 308.151 64.8535H302.229C302.076 65.0335 301.942 65.2292 301.831 65.4375ZM301.578 66.0214H308.796C308.731 65.8198 308.649 65.6244 308.549 65.4375H301.831C301.73 65.6249 301.646 65.8202 301.578 66.0214ZM301.424 66.6057H303.949C304.135 66.3337 304.477 66.0819 305.112 66.0819C305.758 66.0819 306.106 66.3333 306.293 66.6057H308.94C308.907 66.4078 308.859 66.2126 308.797 66.0218H301.578C301.513 66.2126 301.462 66.4077 301.424 66.6057Z" fill="#CCCCCC"/>
<path fill-rule="evenodd" clip-rule="evenodd" d="M301.353 67.1893H303.738C303.76 66.9806 303.833 66.7803 303.949 66.6054H301.424C301.373 66.8711 301.358 67.0811 301.353 67.1893ZM306.508 67.1893H308.994V67.1431C308.988 66.9627 308.97 66.7829 308.94 66.605H306.293C306.448 66.8296 306.494 67.0682 306.508 67.1893ZM301.352 67.7934H303.732V67.2696C303.732 67.2696 303.732 67.2394 303.738 67.1893H301.353C301.351 67.2409 301.352 67.2696 301.352 67.2696V67.7934ZM306.513 67.7934H308.994V67.1893H306.508C306.514 67.2394 306.514 67.2696 306.514 67.2696V67.7934H306.513Z" fill="#CCCCCC"/>
<path fill-rule="evenodd" clip-rule="evenodd" d="M301.352 68.3778H303.732V67.7935H301.352V68.3778ZM306.513 68.3778H308.994V67.7935H306.513V68.3778ZM301.352 68.9617H303.732V68.3778H301.352V68.9617ZM306.513 68.9617H308.994V68.3778H306.513V68.9617Z" fill="#CCCCCC"/>
<path fill-rule="evenodd" clip-rule="evenodd" d="M301.352 69.5454H303.732V68.9614H301.352V69.5454ZM306.513 69.5454H308.994V68.9614H306.513V69.5454ZM301.352 70.1297H303.732V69.5458H301.352V70.1297ZM306.513 70.1297H308.994V69.5458H306.513V70.1297Z" fill="#CCCCCC"/>
<path fill-rule="evenodd" clip-rule="evenodd" d="M301.352 70.7138H303.732V70.1299H301.352V70.7138ZM306.513 70.7138H308.994V70.1299H306.513V70.7138ZM301.352 71.2978H303.732V70.7138H301.352V71.2978ZM306.513 71.2978H308.994V70.7138H306.513V71.2978ZM301.352 71.8817H303.732V71.2978H301.352V71.8817ZM306.513 71.8817H308.994V71.2978H306.513V71.8817Z" fill="#CCCCCC"/>
<path fill-rule="evenodd" clip-rule="evenodd" d="M301.352 72.4653H303.732V71.8813H301.352V72.4653ZM306.513 72.4653H308.994V71.8813H306.513V72.4653Z" fill="#CCCCCC"/>
<path fill-rule="evenodd" clip-rule="evenodd" d="M301.352 73.0497H303.732V72.4653H301.352V73.0497ZM306.513 73.0497H308.994V72.4653H306.513V73.0497Z" fill="#CCCCCC"/>
<path fill-rule="evenodd" clip-rule="evenodd" d="M301.352 73.6337H303.732V73.0498H301.352V73.6337ZM306.513 73.6337H308.994V73.0498H306.513V73.6337ZM301.352 74.2181H303.732V73.6341H301.352V74.2181ZM306.513 74.2181H308.994V73.6341H306.513V74.2181ZM301.352 74.8222H303.732V74.2181H301.352V74.8222ZM306.513 74.8222H308.994V74.2181H306.513V74.8222Z" fill="#CCCCCC"/>
<path fill-rule="evenodd" clip-rule="evenodd" d="M301.352 75.4057H303.732V74.8218H301.352V75.4057ZM306.513 75.4057H308.994V74.8218H306.513V75.4057ZM301.352 75.9897H303.732V75.4057H301.352V75.9897ZM306.513 75.9897H308.994V75.4057H306.513V75.9897Z" fill="#CCCCCC"/>
<path fill-rule="evenodd" clip-rule="evenodd" d="M301.352 76.5736H303.732V75.9893H301.352V76.5736ZM306.513 76.5736H308.994V75.9893H306.513V76.5736ZM308.994 76.9965V76.5736H306.513V76.9965H308.994ZM303.732 76.5736H301.352V76.9965H303.732V76.5736Z" fill="#CCCCCC"/>
<path fill-rule="evenodd" clip-rule="evenodd" d="M261.439 64.4306H266.051C265.51 64.0826 264.766 63.8467 263.742 63.8467C262.723 63.8467 261.98 64.0826 261.439 64.4306ZM260.772 65.0146H266.714C266.524 64.7872 266.3 64.5903 266.05 64.4306H261.439C261.188 64.5906 260.964 64.7875 260.772 65.0146Z" fill="#CCCCCC"/>
<path fill-rule="evenodd" clip-rule="evenodd" d="M260.396 65.5789H267.086C266.983 65.3779 266.858 65.1888 266.714 65.0151H260.772C260.626 65.1888 260.5 65.3778 260.396 65.5789Z" fill="#CCCCCC"/>
<path fill-rule="evenodd" clip-rule="evenodd" d="M260.156 66.1621H267.32C267.26 65.9607 267.181 65.7653 267.086 65.5781H260.396C260.299 65.7653 260.218 65.9607 260.156 66.1621ZM260.021 66.7464H262.654C262.835 66.5016 263.169 66.2629 263.782 66.2629C264.415 66.2629 264.75 66.5016 264.926 66.7464H267.449C267.421 66.5487 267.379 66.3535 267.321 66.1625H260.156C260.088 66.377 260.047 66.5768 260.021 66.7464Z" fill="#CCCCCC"/>
<path fill-rule="evenodd" clip-rule="evenodd" d="M259.981 67.3103H262.442V67.27C262.442 67.27 262.463 67.0046 262.654 66.7466H260.021C259.974 67.0612 259.981 67.27 259.981 67.27V67.3103ZM265.122 67.3103H267.483V67.1443C267.479 67.0112 267.467 66.8784 267.448 66.7466H264.926C265.112 67.0046 265.122 67.27 265.122 67.27V67.3103ZM259.981 67.8943H262.442V67.3103H259.981V67.8943ZM265.122 67.8943H267.483V67.3103H265.122V67.8943Z" fill="#CCCCCC"/>
<path fill-rule="evenodd" clip-rule="evenodd" d="M259.981 68.479H262.442V67.895H259.981V68.479ZM265.122 68.479H267.483V67.895H265.122V68.479ZM259.981 69.0427H262.442V68.479H259.981V69.0427ZM265.122 69.0427H267.483V68.479H265.122V69.0427Z" fill="#CCCCCC"/>
<path fill-rule="evenodd" clip-rule="evenodd" d="M259.981 69.6259H262.442V69.042H259.981V69.6259ZM265.122 69.6259H267.483V69.042H265.122V69.6259ZM259.981 70.1897H262.442V69.6259H259.981V70.1897ZM265.122 70.1897H267.483V69.6259H265.122V70.1897Z" fill="#CCCCCC"/>
<path fill-rule="evenodd" clip-rule="evenodd" d="M259.981 70.7743H262.442V70.1899H259.981V70.7743ZM265.122 70.7743H267.483V70.1899H265.122V70.7743ZM259.981 71.3582H262.442V70.7743H259.981V71.3582ZM265.122 71.3582H267.483V70.7743H265.122V71.3582Z" fill="#CCCCCC"/>
<path fill-rule="evenodd" clip-rule="evenodd" d="M259.981 71.9217H262.442V71.3579H259.981V71.9217ZM265.122 71.9217H267.483V71.3579H265.122V71.9217Z" fill="#CCCCCC"/>
<path fill-rule="evenodd" clip-rule="evenodd" d="M259.981 72.5062H262.442V71.9219H259.981V72.5062ZM265.122 72.5062H267.483V71.9219H265.122V72.5062Z" fill="#CCCCCC"/>
<path fill-rule="evenodd" clip-rule="evenodd" d="M259.981 73.0898H262.442V72.5059H259.981V73.0898ZM265.122 73.0898H267.483V72.5059H265.122V73.0898Z" fill="#CCCCCC"/>
<path fill-rule="evenodd" clip-rule="evenodd" d="M259.981 73.6536H262.442V73.0898H259.981V73.6536ZM265.122 73.6536H267.483V73.0898H265.122V73.6536ZM259.981 74.2375H262.442V73.6536H259.981V74.2375ZM265.122 74.2375H267.483V73.6536H265.122V74.2375ZM259.981 74.8219H262.442V74.2379H259.981V74.8219ZM265.122 74.8219H267.483V74.2379H265.122V74.8219Z" fill="#CCCCCC"/>
<path fill-rule="evenodd" clip-rule="evenodd" d="M259.981 75.3855H262.442V74.8218H259.981V75.3855ZM265.122 75.3855H267.483V74.8218H265.122V75.3855ZM259.981 75.9695H262.442V75.3855H259.981V75.9695ZM265.122 75.9695H267.483V75.3855H265.122V75.9695Z" fill="#CCCCCC"/>
<path fill-rule="evenodd" clip-rule="evenodd" d="M259.981 76.5537H262.442V75.9697H259.981V76.5537ZM265.122 76.5537H267.483V75.9697H265.122V76.5537Z" fill="#CCCCCC"/>
<path fill-rule="evenodd" clip-rule="evenodd" d="M259.981 77.117H262.442V76.5532H259.981V77.117ZM265.122 77.117H267.483V76.5532H265.122V77.117ZM259.981 77.7013H262.442V77.117H259.981V77.7013ZM265.122 77.7013H267.483V77.117H265.122V77.7013Z" fill="#CCCCCC"/>
<path fill-rule="evenodd" clip-rule="evenodd" d="M259.981 78.2654H262.442V77.7017H259.981V78.2654ZM265.122 78.2654H267.483V77.7017H265.122V78.2654ZM259.981 78.8497H262.442V78.2654H259.981V78.8497ZM265.122 78.8497H267.483V78.2654H265.122V78.8497ZM256.887 79.4333H267.483V78.8497H265.122V78.9906H262.442V78.8497H259.981V78.9906H256.6L256.887 79.4333Z" fill="#CCCCCC"/>
<path fill-rule="evenodd" clip-rule="evenodd" d="M257.253 79.9981H267.483V79.4336H256.887L257.253 79.9981ZM257.631 80.5817H267.483V79.9981H257.253L257.631 80.5817Z" fill="#CCCCCC"/>
<path fill-rule="evenodd" clip-rule="evenodd" d="M258.01 81.1655H267.483V80.5815H257.631L258.01 81.1655ZM260.081 81.7296H262.402V81.4072H265.183V81.7296H267.483V81.1655H258.01L258.141 81.3672H260.081V81.7296Z" fill="#CCCCCC"/>
<path fill-rule="evenodd" clip-rule="evenodd" d="M260.081 82.3138H262.402V81.7295H260.081V82.3138ZM265.183 82.3138H267.483V81.7295H265.183V82.3138Z" fill="#CCCCCC"/>
<path fill-rule="evenodd" clip-rule="evenodd" d="M260.081 82.897H262.402V82.3135H260.081V82.897ZM265.183 82.897H267.483V82.3135H265.183V82.897ZM260.081 83.4608H262.402V82.897H260.081V83.4608ZM265.183 83.4608H267.483V82.897H265.183V83.4608Z" fill="#CCCCCC"/>
<path fill-rule="evenodd" clip-rule="evenodd" d="M260.081 84.0453H262.402V83.4609H260.081V84.0453ZM265.183 84.0453H267.483V83.4609H265.183V84.0453ZM260.081 84.6296H262.402V84.0453H260.081V84.6296ZM265.183 84.6296H267.483V84.0453H265.183V84.6296ZM260.081 85.1933H262.402V84.6296H260.081V85.1933ZM265.183 85.1933H267.483V84.6296H265.183V85.1933Z" fill="#CCCCCC"/>
<path fill-rule="evenodd" clip-rule="evenodd" d="M260.081 85.7764H262.402V85.1929H260.081V85.7764ZM265.183 85.7764H267.483V85.1929H265.183V85.7764Z" fill="#CCCCCC"/>
<line x1="389.732" y1="60" x2="389.732" y2="92" stroke="#E6E6E6"/>
<path fill-rule="evenodd" clip-rule="evenodd" d="M495.101 87.7551C492.517 89.8774 489.103 91.1692 485.504 91.1692C477.013 91.1692 470.207 84.3399 470.207 75.9653C470.207 67.5674 477.013 60.7381 485.504 60.7381C491.133 60.7381 496.025 63.7835 498.701 68.3979C499.07 68.4902 499.347 68.5826 499.715 68.6749C497.04 63.5068 491.687 60 485.504 60C476.644 60 469.469 67.106 469.469 75.9653C469.469 84.802 476.644 92 485.504 92C489.657 92 493.44 90.3391 496.301 87.7551H495.101Z" fill="#CCCCCC"/>
<path fill-rule="evenodd" clip-rule="evenodd" d="M487.534 87.0173H529.408V80.7417H487.534V87.0173Z" fill="#CCCCCC"/>
<path fill-rule="evenodd" clip-rule="evenodd" d="M489.656 69.5051L489.472 70.3359H487.441C486.888 76.2424 486.518 81.0178 486.149 83.2331C485.319 87.2013 481.627 89.416 479.228 89.416C478.398 89.416 477.383 89.0473 477.383 88.0321C477.383 87.4784 477.844 87.017 478.398 87.017C479.228 87.017 479.874 87.6627 480.336 88.4009C481.628 87.6627 481.812 87.017 482.366 84.4326C482.643 83.2331 483.381 74.6732 483.75 70.3359H482.089L482.274 69.5051H483.935L484.119 68.0289C485.042 62.5841 489.011 61.938 490.487 61.938C491.226 61.938 492.702 62.307 492.702 63.3222C492.702 63.9679 492.148 64.245 491.595 64.245C490.579 64.245 490.118 63.6912 489.656 62.8604C487.995 63.5989 487.718 67.6595 487.534 69.5047H489.656V69.5051ZM489.472 77.0725C489.472 72.7356 492.241 68.9517 496.947 68.9517C499.9 68.9517 501.561 70.2439 501.561 73.1046C501.561 77.4419 498.793 81.1105 494.086 81.1105C491.133 81.1105 489.472 79.8183 489.472 77.0725ZM497.778 73.7507C497.778 72.6432 497.685 69.9672 496.025 69.9672C493.625 69.9672 493.256 74.6735 493.256 76.4271C493.256 77.4423 493.348 80.188 495.009 80.188C497.408 80.1877 497.778 75.504 497.778 73.7507ZM502.577 77.0725C502.577 72.7356 505.438 68.9517 510.144 68.9517C513.005 68.9517 514.735 70.2439 514.735 73.1046C514.735 77.4419 511.897 81.1105 507.191 81.1105C504.33 81.1105 502.577 79.8183 502.577 77.0725ZM510.974 73.7507C510.974 72.6432 510.882 69.9672 509.221 69.9672C506.729 69.9672 506.453 74.6735 506.453 76.4271C506.453 77.4423 506.453 80.188 508.114 80.188C510.605 80.1877 510.974 75.504 510.974 73.7507ZM529.04 79.7263C527.378 80.4644 525.348 81.1101 523.964 81.1101C523.226 81.1101 523.318 80.0023 523.318 79.5412C523.318 78.9882 523.318 78.249 523.503 76.7962L523.41 76.7035C522.487 78.6184 520.641 81.1101 518.242 81.1101C516.396 81.1101 515.565 79.1722 515.565 77.5343C515.565 73.4733 518.795 69.1364 523.41 69.1364H524.333C524.702 66.2753 524.702 65.0758 524.702 64.1526C524.702 63.8759 524.702 63.5989 524.425 63.5989C524.148 63.5989 523.779 63.6912 522.856 63.9679L522.672 63.2298C524.518 62.5841 526.548 62.2147 528.393 62.1223C528.578 62.1223 528.67 62.1223 528.67 62.4914C528.67 64.8907 526.824 77.4416 526.824 78.7111C526.824 78.9882 526.824 79.4492 527.194 79.4492C527.378 79.4492 528.025 79.2642 528.763 78.9878L529.04 79.7263ZM523.041 75.781C523.687 74.2121 523.871 72.6432 524.241 70.2439C524.056 70.1512 523.871 70.1512 523.779 70.1512C520.918 70.1512 519.534 74.3965 519.534 76.7035C519.534 77.2572 519.626 78.6184 520.457 78.6184C521.657 78.6188 522.672 76.7038 523.041 75.781Z" fill="#CCCCCC"/>
<path fill-rule="evenodd" clip-rule="evenodd" d="M490.026 82.2178H491.041L492.333 84.1558V82.2178H493.163V85.909H492.425L490.856 83.7871V85.909H490.026V82.2178ZM495.562 82.2178H498.424V82.9563H496.67V83.6017H497.778V84.4325H496.67V85.0782H498.424V85.909H495.562V82.2178ZM501.469 82.9563H500.454V82.2178H503.592V82.9563H502.577V85.909H501.469V82.9563ZM505.438 82.2178H506.544L507.007 84.1558H507.098L507.56 82.2178H508.483L508.944 84.1558H509.037L509.498 82.2178H510.328L509.406 85.909H508.483L507.929 83.8787L507.375 85.909H506.453L505.438 82.2178ZM514.089 86.0017C513.005 86.0017 512.267 85.2636 512.267 84.0634C512.267 82.8639 513.005 82.1255 514.089 82.1255C515.197 82.1255 515.842 82.8636 515.842 84.0634C515.842 85.2633 515.197 86.0017 514.089 86.0017ZM513.443 84.0631C513.443 85.0782 513.721 85.2633 514.089 85.2633C514.459 85.2633 514.735 85.0782 514.735 84.0631C514.735 83.0486 514.459 82.8636 514.089 82.8636C513.628 82.8636 513.443 83.1406 513.443 84.0631ZM518.057 82.2178H519.903C521.103 82.2178 521.38 82.7709 521.38 83.233C521.38 83.6944 521.103 84.0631 520.642 84.1558L521.38 85.909H520.18L519.626 84.3401H519.165V85.909H518.057V82.2178ZM519.165 83.6944H519.719C519.995 83.6944 520.272 83.5093 520.272 83.325C520.272 83.0486 520.087 82.8636 519.719 82.8636H519.165V83.6944ZM523.687 82.2178H524.794V83.6944L525.902 82.2178H526.917L525.994 83.4173L527.101 85.909H525.994L525.256 84.3401L524.794 84.9866V85.909H523.687V82.2178Z" fill="white"/>
<line x1="610.146" y1="60" x2="610.146" y2="92" stroke="#E6E6E6"/>
<g clip-path="url(#clip0_629_3283)">
<path d="M762.541 78.3893C762.218 78.3893 761.975 78.3083 761.786 78.1194C761.624 77.9574 761.516 77.6875 761.516 77.3636V67.4042C761.516 67.0803 761.597 66.8104 761.786 66.6484C761.975 66.4865 762.218 66.4055 762.541 66.4055H764.35C764.755 66.4055 765.105 66.4325 765.402 66.4595C765.699 66.5135 765.969 66.5944 766.158 66.7564C766.374 66.9183 766.509 67.1343 766.617 67.4581C766.725 67.755 766.779 68.1869 766.779 68.6997V76.0951C766.779 76.7698 766.698 77.2557 766.509 77.5795C766.32 77.9034 766.05 78.1194 765.699 78.2273C765.348 78.3353 764.89 78.3893 764.35 78.3623L762.541 78.3893ZM756.738 60.6026C756.415 60.6296 756.145 60.7105 755.983 60.8725C755.821 61.0344 755.74 61.3043 755.74 61.6282V83.1666C755.74 83.4904 755.821 83.7334 756.01 83.9223C756.172 84.0842 756.442 84.1922 756.765 84.1922H764.269C765.834 84.1922 767.184 84.0303 768.263 83.7064C769.343 83.3825 770.207 82.8697 770.854 82.2219C771.502 81.5741 771.988 80.7104 772.258 79.6848C772.555 78.6592 772.69 77.4716 772.69 76.0951V68.6997C772.69 67.3232 772.555 66.1356 772.258 65.11C771.961 64.0843 771.502 63.2476 770.854 62.5999C770.207 61.9251 769.343 61.4393 768.263 61.1154C767.184 60.7915 765.861 60.6296 764.269 60.6296L756.738 60.6026ZM746.914 74.8265C746.914 75.4743 746.887 76.0681 746.86 76.5809C746.806 77.0937 746.698 77.5256 746.536 77.9034C746.374 78.2813 746.104 78.5512 745.726 78.7401C745.375 78.9291 744.89 79.037 744.269 79.037C743.648 79.037 743.162 78.9291 742.811 78.7401C742.434 78.5512 742.191 78.2813 742.002 77.9034C741.84 77.5526 741.732 77.0937 741.678 76.5809C741.624 76.0681 741.597 75.4743 741.624 74.8265V69.9683C741.624 69.3205 741.651 68.7267 741.678 68.2139C741.732 67.7011 741.84 67.2692 742.002 66.8913C742.164 66.5135 742.434 66.2436 742.811 66.0546C743.162 65.8657 743.648 65.7577 744.269 65.7577C744.89 65.7577 745.375 65.8657 745.726 66.0546C746.104 66.2436 746.347 66.5135 746.536 66.8913C746.698 67.2422 746.806 67.7011 746.86 68.2139C746.914 68.7267 746.914 69.3205 746.914 69.9683V74.8265ZM752.69 68.1869C752.69 67.809 752.663 67.3502 752.609 66.8104C752.555 66.2706 752.447 65.7038 752.258 65.083C752.069 64.4622 751.799 63.8684 751.448 63.2746C751.07 62.6808 750.585 62.141 749.964 61.6552C749.343 61.1694 748.56 60.7645 747.616 60.4676C746.671 60.1707 745.537 60.0358 744.215 60.0088C742.892 60.0088 741.759 60.1707 740.814 60.4676C739.869 60.7645 739.087 61.1694 738.466 61.6552C737.845 62.141 737.359 62.6808 736.981 63.2746C736.604 63.8684 736.334 64.4892 736.172 65.083C735.983 65.7038 735.875 66.2706 735.821 66.8104C735.767 67.3502 735.74 67.809 735.74 68.1869V76.6079C735.74 76.9858 735.767 77.4446 735.821 77.9844C735.875 78.5242 735.983 79.091 736.172 79.7118C736.334 80.3326 736.631 80.9264 736.981 81.5201C737.359 82.1139 737.845 82.6537 738.466 83.1666C739.087 83.6524 739.869 84.0572 740.814 84.3271C741.759 84.624 742.892 84.786 744.215 84.786C745.537 84.786 746.671 84.624 747.616 84.3271C748.56 84.0303 749.343 83.6524 749.964 83.1666C750.585 82.6807 751.07 82.1409 751.448 81.5201C751.826 80.9264 752.096 80.3056 752.258 79.7118C752.42 79.091 752.555 78.5242 752.609 77.9844C752.663 77.4446 752.69 76.9858 752.69 76.6079V68.1869ZM727.292 74.8265C727.292 75.4743 727.265 76.0681 727.238 76.5809C727.184 77.0937 727.076 77.5256 726.914 77.9034C726.752 78.2813 726.482 78.5512 726.104 78.7401C725.753 78.9291 725.268 79.037 724.647 79.037C724.026 79.037 723.54 78.9291 723.189 78.7401C722.812 78.5512 722.569 78.2813 722.38 77.9034C722.218 77.5526 722.11 77.0937 722.056 76.5809C722.002 76.0681 721.975 75.4743 722.002 74.8265V69.9683C722.002 69.3205 722.029 68.7267 722.056 68.2139C722.11 67.7011 722.218 67.2692 722.38 66.8913C722.542 66.5135 722.812 66.2436 723.189 66.0546C723.54 65.8657 724.026 65.7577 724.647 65.7577C725.268 65.7577 725.753 65.8657 726.104 66.0546C726.482 66.2436 726.725 66.5135 726.914 66.8913C727.076 67.2422 727.184 67.7011 727.238 68.2139C727.292 68.7267 727.292 69.3205 727.292 69.9683V74.8265ZM733.095 68.1869C733.095 67.809 733.068 67.3502 733.014 66.8104C732.96 66.2706 732.852 65.7038 732.663 65.083C732.474 64.4622 732.204 63.8684 731.853 63.2746C731.475 62.6808 730.99 62.141 730.369 61.6552C729.748 61.1694 728.965 60.7645 728.021 60.4676C727.076 60.1707 725.942 60.0358 724.62 60.0088C723.297 60.0088 722.164 60.1707 721.219 60.4676C720.274 60.7645 719.492 61.1694 718.871 61.6552C718.25 62.141 717.764 62.6808 717.386 63.2746C717.009 63.8684 716.739 64.4892 716.577 65.083C716.388 65.7038 716.28 66.2706 716.226 66.8104C716.172 67.3502 716.145 67.809 716.145 68.1869V76.6079C716.145 76.9858 716.172 77.4446 716.226 77.9844C716.28 78.5242 716.388 79.091 716.577 79.7118C716.739 80.3326 717.036 80.9264 717.386 81.5201C717.764 82.1139 718.25 82.6537 718.871 83.1666C719.492 83.6524 720.274 84.0572 721.219 84.3271C722.164 84.624 723.297 84.786 724.62 84.786C725.942 84.786 727.076 84.624 728.021 84.3271C728.965 84.0303 729.748 83.6524 730.369 83.1666C730.99 82.6807 731.475 82.1409 731.853 81.5201C732.231 80.9264 732.501 80.3056 732.663 79.7118C732.825 79.091 732.96 78.5242 733.014 77.9844C733.068 77.4446 733.095 76.9858 733.095 76.6079V68.1869ZM713.176 60.6026C713.851 60.6026 714.175 60.9535 714.175 61.6012V65.3799C714.175 65.7038 714.094 65.9467 713.932 66.1356C713.77 66.3245 713.5 66.4055 713.176 66.4055H704.377C704.053 66.4055 703.81 66.4865 703.621 66.6484C703.432 66.8104 703.351 67.0803 703.351 67.4042V83.1936C703.351 83.5174 703.27 83.7603 703.109 83.9493C702.947 84.1112 702.677 84.2192 702.353 84.2192H698.385C698.061 84.2192 697.818 84.1382 697.629 83.9493C697.468 83.7603 697.36 83.5174 697.36 83.1936V61.6282C697.36 61.3043 697.441 61.0344 697.629 60.8725C697.818 60.7105 698.061 60.6296 698.385 60.6296L713.176 60.6026Z" fill="#CCCCCC"/>
<path d="M771.151 89.4545C771.151 89.4275 771.124 89.4275 771.124 89.4005C771.124 89.3735 771.124 89.3735 771.151 89.3465L772.501 87.5112C772.555 87.4302 772.555 87.3762 772.528 87.3492C772.501 87.3222 772.447 87.2683 772.366 87.2683H771.394C771.34 87.2683 771.286 87.2683 771.259 87.2952C771.232 87.3222 771.178 87.3492 771.151 87.4032L770.099 88.8337C770.072 88.8607 770.072 88.8607 770.045 88.8607C770.018 88.8607 770.018 88.8337 770.018 88.8067V87.4842C770.018 87.3492 769.964 87.2952 769.829 87.2952H769.073C769.019 87.2952 768.965 87.3222 768.938 87.3492C768.911 87.3762 768.884 87.4302 768.884 87.5112V91.7756C768.884 91.8296 768.911 91.8836 768.938 91.9106C768.965 91.9376 769.019 91.9646 769.073 91.9646H769.829C769.883 91.9646 769.937 91.9376 769.991 91.9106C770.045 91.8836 770.045 91.8296 770.045 91.7756V91.0469V90.9929C770.045 90.9659 770.045 90.9659 770.072 90.9389L770.342 90.5611C770.342 90.5341 770.369 90.5341 770.396 90.5341C770.423 90.5341 770.423 90.5341 770.45 90.5611L771.286 91.8296C771.313 91.8836 771.34 91.9106 771.394 91.9376C771.421 91.9646 771.475 91.9646 771.529 91.9646H772.528C772.609 91.9646 772.663 91.9376 772.69 91.8836C772.717 91.8296 772.717 91.7756 772.663 91.7217L771.151 89.4545ZM765.105 87.2683C765.051 87.2683 764.997 87.2952 764.97 87.3222C764.944 87.3492 764.917 87.4032 764.917 87.4842V90.4531C764.917 90.5341 764.917 90.6151 764.944 90.723C764.944 90.831 764.97 90.9389 765.024 91.0739C765.051 91.1819 765.105 91.3168 765.186 91.4248C765.267 91.5327 765.348 91.6407 765.483 91.7487C765.618 91.8566 765.753 91.9106 765.942 91.9916C766.131 92.0456 766.347 92.0725 766.617 92.0725C766.887 92.0725 767.103 92.0456 767.292 91.9916C767.481 91.9376 767.643 91.8566 767.75 91.7487C767.885 91.6407 767.966 91.5327 768.047 91.4248C768.128 91.3168 768.182 91.1819 768.209 91.0739C768.236 90.9659 768.263 90.831 768.263 90.723C768.263 90.6151 768.29 90.5341 768.29 90.4531V87.4842C768.29 87.3492 768.236 87.2952 768.101 87.2952H767.346C767.292 87.2952 767.238 87.3222 767.211 87.3492C767.184 87.3762 767.157 87.4302 767.157 87.5112V90.4801C767.157 90.5881 767.13 90.669 767.103 90.75C767.076 90.831 767.022 90.885 766.941 90.912C766.86 90.9389 766.779 90.9659 766.644 90.9659C766.509 90.9659 766.428 90.9389 766.347 90.912C766.266 90.885 766.212 90.831 766.185 90.75C766.158 90.669 766.131 90.5881 766.131 90.4801C766.131 90.3721 766.104 90.2642 766.131 90.1292V87.5112C766.131 87.3762 766.077 87.3222 765.942 87.3222L765.105 87.2683ZM764.242 90.777C764.377 90.777 764.431 90.831 764.431 90.9659V91.7217C764.431 91.7756 764.404 91.8296 764.377 91.8566C764.35 91.8836 764.296 91.9106 764.215 91.9106H763.459C763.405 91.9106 763.351 91.8836 763.324 91.8566C763.297 91.8296 763.27 91.7756 763.27 91.7217V90.9659C763.27 90.912 763.297 90.858 763.324 90.804C763.351 90.777 763.405 90.75 763.459 90.75L764.242 90.777ZM761.624 90.0753V90.4261C761.624 90.5341 761.597 90.6151 761.57 90.696C761.543 90.777 761.489 90.831 761.408 90.858C761.327 90.885 761.246 90.912 761.111 90.912C760.976 90.912 760.895 90.885 760.814 90.858C760.733 90.831 760.679 90.777 760.652 90.696C760.625 90.6151 760.598 90.5341 760.598 90.4261C760.598 90.3182 760.571 90.2102 760.598 90.0753V89.1306V88.7797C760.598 88.6718 760.625 88.5908 760.652 88.5098C760.679 88.4288 760.733 88.3749 760.814 88.3479C760.895 88.3209 760.976 88.2939 761.111 88.2939C761.246 88.2939 761.327 88.3209 761.408 88.3479C761.489 88.3749 761.543 88.4288 761.57 88.5098C761.597 88.5908 761.624 88.6718 761.624 88.7797V90.0753ZM762.784 88.7527C762.784 88.6718 762.784 88.5908 762.757 88.4828C762.757 88.3749 762.73 88.2669 762.703 88.1319C762.676 88.024 762.622 87.889 762.541 87.7811C762.46 87.6731 762.379 87.5651 762.244 87.4572C762.11 87.3492 761.975 87.2952 761.786 87.2143C761.597 87.1603 761.381 87.1333 761.111 87.1333C760.841 87.1333 760.625 87.1603 760.436 87.2143C760.247 87.2683 760.085 87.3492 759.977 87.4572C759.842 87.5651 759.761 87.6731 759.68 87.7811C759.599 87.889 759.545 88.024 759.518 88.1319C759.491 88.2399 759.464 88.3749 759.437 88.4828C759.437 88.5908 759.41 88.6718 759.41 88.7527V90.4261C759.41 90.5071 759.41 90.5881 759.437 90.696C759.437 90.804 759.464 90.912 759.518 91.0469C759.545 91.1549 759.599 91.2898 759.68 91.3978C759.761 91.5057 759.842 91.6137 759.977 91.7217C760.112 91.8296 760.247 91.8836 760.436 91.9646C760.625 92.0186 760.841 92.0456 761.111 92.0456C761.381 92.0456 761.597 92.0186 761.786 91.9646C761.975 91.9106 762.137 91.8296 762.244 91.7217C762.379 91.6137 762.46 91.5057 762.541 91.3978C762.622 91.2898 762.676 91.1549 762.703 91.0469C762.73 90.9389 762.757 90.804 762.757 90.696C762.757 90.5881 762.784 90.5071 762.784 90.4261V88.7527ZM755.713 90.4261C755.713 90.5071 755.713 90.5881 755.74 90.696C755.74 90.804 755.767 90.912 755.821 91.0469C755.848 91.1549 755.902 91.2898 755.983 91.3978C756.064 91.5057 756.145 91.6137 756.28 91.7217C756.415 91.8296 756.549 91.8836 756.738 91.9646C756.927 92.0186 757.143 92.0456 757.413 92.0456C757.656 92.0456 757.845 92.0186 758.034 91.9646C758.196 91.9106 758.358 91.8566 758.466 91.7756C758.574 91.6947 758.682 91.6137 758.763 91.5057C758.844 91.3978 758.898 91.2898 758.952 91.1819C759.006 91.0739 759.033 90.9659 759.033 90.858C759.06 90.75 759.06 90.669 759.06 90.5611C759.06 90.5071 759.06 90.4801 759.033 90.4261C759.006 90.3991 758.979 90.3721 758.925 90.3721L758.169 90.2102C758.115 90.1832 758.034 90.2102 758.007 90.2372C757.953 90.2642 757.926 90.3182 757.926 90.3991C757.926 90.5071 757.899 90.5881 757.845 90.669C757.818 90.75 757.764 90.804 757.683 90.831C757.602 90.858 757.521 90.885 757.386 90.885C757.251 90.885 757.17 90.858 757.089 90.831C757.008 90.804 756.954 90.75 756.927 90.669C756.9 90.5881 756.873 90.5071 756.873 90.3991C756.873 90.2912 756.846 90.1832 756.873 90.0483V89.1036V88.7527C756.873 88.6448 756.9 88.5638 756.927 88.4828C756.954 88.4018 757.008 88.3479 757.089 88.3209C757.17 88.2939 757.251 88.2669 757.386 88.2669C757.494 88.2669 757.602 88.2939 757.683 88.3209C757.764 88.3479 757.818 88.4018 757.845 88.4828C757.872 88.5638 757.899 88.6448 757.899 88.7257C757.899 88.8067 757.926 88.8607 757.98 88.8877C758.034 88.9147 758.088 88.9417 758.169 88.9417L758.898 88.7797C758.952 88.7797 758.979 88.7527 759.006 88.7257C759.033 88.6987 759.033 88.6448 759.033 88.6178C759.033 88.5368 759.006 88.4288 759.006 88.3209L758.925 87.997C758.871 87.889 758.817 87.7811 758.736 87.6731C758.655 87.5651 758.547 87.4842 758.439 87.4032C758.304 87.3222 758.169 87.2683 758.007 87.2143C757.845 87.1603 757.629 87.1333 757.386 87.1333C757.116 87.1333 756.9 87.1603 756.711 87.2143C756.523 87.2683 756.361 87.3492 756.253 87.4572C756.118 87.5651 756.037 87.6731 755.956 87.7811C755.875 87.889 755.821 88.024 755.794 88.1319C755.767 88.2399 755.74 88.3749 755.713 88.4828C755.713 88.5908 755.686 88.6718 755.686 88.7527V90.4261H755.713ZM755.092 90.777C755.227 90.777 755.281 90.831 755.281 90.9659V91.7217C755.281 91.7756 755.254 91.8296 755.227 91.8566C755.2 91.8836 755.146 91.9106 755.065 91.9106H754.309C754.255 91.9106 754.201 91.8836 754.174 91.8566C754.147 91.8296 754.12 91.7756 754.12 91.7217V90.9659C754.12 90.912 754.147 90.858 754.174 90.804C754.201 90.777 754.255 90.75 754.309 90.75L755.092 90.777Z" fill="#CCCCCC"/>
<path d="M705.673 73.4227C703.163 73.2068 690.909 75.204 689.991 73.0448C688.453 69.4551 701.327 71.4794 703.055 71.5333C703.918 71.5603 704.998 71.7223 705.619 71.5603C706.051 71.4254 706.347 70.7236 706.833 70.4537C707.913 69.806 709.667 70.1568 711.179 70.2918C712.204 70.3728 713.203 70.4807 714.283 70.5617C712.744 70.7776 711.098 70.9935 709.478 71.2095C709.289 71.2365 708.993 71.1555 708.858 71.3714C710.504 71.6413 712.366 71.6953 714.148 71.8302C712.393 72.1001 710.423 72.1541 708.696 72.478C708.804 72.6669 709.128 72.613 709.316 72.64C710.855 72.7479 712.555 72.8829 714.175 72.9638C712.501 73.2337 710.558 73.2877 708.885 73.6116C708.939 73.8815 709.289 73.8005 709.451 73.8005C710.99 73.9895 712.717 74.2054 714.31 74.3404C712.555 74.4753 710.396 74.8802 708.588 74.9881C707.184 75.0691 706.347 74.2594 705.673 73.4227Z" fill="#CCCCCC"/>
<path d="M701.327 73.6387C703.271 73.4767 704.917 73.3418 705.673 73.3958C706.024 73.8276 706.374 74.2325 706.86 74.5294C707.319 74.8263 707.859 75.0152 708.561 74.9612C709.559 74.9072 710.666 74.7453 711.746 74.6103C712.528 74.5024 713.284 74.3944 713.986 74.3404C713.284 74.2865 712.582 74.2055 711.854 74.1245C711.017 74.0435 710.207 73.9356 709.451 73.8276H709.316C709.128 73.8276 708.885 73.8276 708.858 73.6117V73.5847H708.885C709.802 73.3958 710.828 73.2878 711.854 73.2068C712.555 73.1529 713.257 73.0719 713.905 72.9909C712.69 72.9099 711.422 72.829 710.234 72.748C709.937 72.721 709.64 72.694 709.343 72.694H709.208C709.02 72.694 708.804 72.694 708.696 72.5321L708.669 72.5051H708.696C709.667 72.3162 710.72 72.2082 711.773 72.1272C712.474 72.0732 713.203 71.9923 713.878 71.9113C713.527 71.8843 713.149 71.8573 712.798 71.8303C711.449 71.7494 710.072 71.6684 708.858 71.4795H708.804L708.831 71.4525C708.939 71.2905 709.128 71.2905 709.289 71.2905H709.451L710.747 71.1286C711.827 70.9936 712.933 70.8317 713.959 70.6967C713.338 70.6428 712.717 70.5888 712.123 70.5348C711.8 70.5078 711.503 70.4808 711.152 70.4538L710.342 70.3728C709.047 70.2379 707.697 70.076 706.833 70.6158C706.617 70.7507 706.428 70.9666 706.267 71.1826C706.051 71.4255 705.862 71.6684 705.619 71.7494C705.187 71.8573 704.539 71.8303 703.891 71.7763C703.594 71.7494 703.298 71.7224 703.028 71.7224C702.731 71.7224 702.11 71.6414 701.3 71.5604C698.385 71.1016 692.906 70.5348 690.774 71.4525C690.018 71.7763 689.694 72.2622 690.018 73.0449C690.639 74.5294 696.793 74.0166 701.327 73.6387ZM705.673 73.4498C704.917 73.3958 703.271 73.5307 701.327 73.6927C696.793 74.0705 690.612 74.5834 689.964 73.0449C689.613 72.2352 689.964 71.7224 690.747 71.3715C692.906 70.4538 698.385 71.0206 701.327 71.3175C702.137 71.3985 702.758 71.4795 703.055 71.4795C703.325 71.4795 703.621 71.5064 703.918 71.5334C704.566 71.5874 705.187 71.6144 705.619 71.5064C705.835 71.4525 706.024 71.2095 706.24 70.9666C706.428 70.7507 706.59 70.5348 706.833 70.3998C707.724 69.86 709.074 70.022 710.396 70.1569L711.206 70.2379C711.503 70.2649 711.854 70.2919 712.177 70.3189C712.879 70.3728 713.581 70.4538 714.31 70.4808L714.607 70.5078L714.337 70.5618C713.23 70.7237 712.042 70.8857 710.855 71.0476L709.559 71.2096H709.397C709.262 71.2096 709.101 71.2096 708.993 71.3175C710.207 71.5064 711.557 71.5874 712.906 71.6684C713.365 71.6954 713.797 71.7224 714.256 71.7494L714.526 71.7763L714.256 71.8033C713.5 71.9113 712.69 71.9923 711.881 72.0732C710.855 72.1812 709.802 72.2622 708.858 72.4511C708.939 72.5591 709.128 72.5591 709.289 72.5591H709.424C709.721 72.5861 710.018 72.6131 710.315 72.6131C711.611 72.721 712.96 72.802 714.256 72.883L714.526 72.9099L714.256 72.9639C713.5 73.0719 712.717 73.1529 711.935 73.2338C710.936 73.3418 709.937 73.4228 709.02 73.6117C709.074 73.7736 709.262 73.7466 709.424 73.7466H709.559C710.342 73.8276 711.152 73.9356 711.962 74.0435C712.771 74.1245 713.608 74.2325 714.391 74.2865V74.3404C713.608 74.3944 712.717 74.5294 711.827 74.6373C710.747 74.7723 709.64 74.9342 708.642 74.9882C707.94 75.0422 707.373 74.8533 706.914 74.5564C706.374 74.2865 705.997 73.8816 705.673 73.4498Z" fill="#CCCCCC"/>
</g>
<line x1="853.265" y1="60" x2="853.265" y2="92" stroke="#E6E6E6"/>
<g clip-path="url(#clip1_629_3283)">
<path d="M1046.18 60C1044.11 60 1042.42 61.6718 1042.42 63.7419C1042.42 65.8225 1044.13 67.489 1046.2 67.4838C1048.27 67.489 1049.93 65.8225 1049.93 63.7419C1049.92 61.677 1048.25 60 1046.18 60ZM978.251 60.0629C976.171 60.0629 974.494 61.719 974.494 63.7891C974.494 65.8696 976.176 67.5624 978.251 67.5676C980.316 67.5676 981.993 65.8696 981.993 63.7891C981.998 61.719 980.316 60.0629 978.251 60.0629ZM1034.15 64.266C1032.08 64.266 1030.39 65.9378 1030.39 68.0079C1030.39 70.078 1032.08 71.7655 1034.15 71.7655C1036.22 71.7655 1037.89 70.0832 1037.89 68.0079C1037.9 65.943 1036.22 64.266 1034.15 64.266ZM1058.29 64.266C1056.22 64.266 1054.53 65.9378 1054.53 68.0079C1054.53 70.078 1056.22 71.7655 1058.29 71.7655C1060.37 71.7655 1062.01 70.078 1062.01 68.0079C1062.01 65.9378 1060.37 64.2607 1058.29 64.266ZM990.09 64.3289C988.025 64.3289 986.333 66.0216 986.333 68.0865C986.333 70.1618 988.02 71.8284 990.09 71.8284C992.15 71.8284 993.832 70.1566 993.832 68.0865C993.832 66.0216 992.155 64.3289 990.09 64.3289ZM966.192 64.4284C964.127 64.4232 962.45 66.095 962.45 68.1598V68.1756C962.45 70.2509 964.117 71.9384 966.192 71.9332C968.252 71.9332 969.934 70.2457 969.934 68.1756C969.934 66.1002 968.252 64.4284 966.192 64.4284ZM1047.47 73.17C1047.47 73.17 1040.02 73.2172 1039.93 73.2172C1038.66 73.2172 1037.59 74.2968 1037.59 75.5598L1037.57 89.1019H1037.59C1037.64 90.7055 1038.99 92 1040.6 92C1042.23 92 1043.57 90.7055 1043.63 89.1019V84.3957C1043.63 84.3957 1046.61 84.38 1046.71 84.38C1047.85 84.38 1048.81 83.4681 1048.81 82.3151C1048.81 81.1569 1047.86 80.2136 1046.71 80.2136H1043.63V78.961H1047.47C1049.06 78.961 1050.34 77.6875 1050.34 76.0943C1050.33 74.5169 1049.06 73.17 1047.47 73.17ZM1061.17 73.17C1061.17 73.17 1053.72 73.2172 1053.63 73.2172C1052.36 73.2172 1051.29 74.2915 1051.29 75.5598V89.1019H1051.31C1051.36 90.7055 1052.68 92 1054.31 92C1055.94 92 1057.25 90.7108 1057.3 89.1019H1057.32V84.3957C1057.32 84.3957 1060.29 84.38 1060.39 84.38C1061.54 84.38 1062.5 83.4681 1062.5 82.3151C1062.5 81.1569 1061.54 80.2136 1060.39 80.2136H1057.31V78.961H1061.15C1062.74 78.961 1064.02 77.6875 1064.02 76.0943C1064.02 74.5169 1062.75 73.1648 1061.17 73.17ZM993.764 73.2014C992.176 73.2014 990.897 74.4802 990.897 76.0524C990.897 76.1572 990.918 76.2673 990.929 76.3773L990.913 89.0757L990.929 89.2224C991.007 90.7213 992.249 91.9266 993.78 91.9266C995.368 91.9266 996.646 90.6531 996.646 89.0757C996.646 88.8922 996.631 88.7193 996.599 88.5568V84.7887L1000.87 90.5169C1000.93 90.6112 1001 90.7055 1001.06 90.8104L1001.07 90.8418C1001.63 91.4812 1002.46 91.8847 1003.37 91.8847C1005.03 91.8847 1006.37 90.5431 1006.37 88.887C1006.37 88.3105 1006.21 87.7445 1005.9 87.2571L1005.85 87.1942C1005.81 87.1261 1005.77 87.058 1005.72 87.0003L1001.86 81.8225L1005 78.0282H1004.98C1005.39 77.5303 1005.65 76.8962 1005.65 76.1887C1005.64 74.5745 1004.33 73.2434 1002.72 73.2434C1001.66 73.2434 1000.74 73.8041 1000.23 74.6426L996.599 79.0239V76.4821C996.615 76.3406 996.631 76.1887 996.631 76.0419C996.631 74.4802 995.347 73.2014 993.764 73.2014ZM935.544 73.2172C934.145 73.2172 933.024 74.3596 933.024 75.738C933.024 75.738 933.008 89.1857 933.008 89.4111C933.008 90.8418 934.098 91.9161 935.529 91.9161L942.038 91.9319C945.235 91.9319 947.834 89.3482 947.834 86.1513C947.834 84.3433 947.027 82.7344 945.732 81.6757C946.492 80.7743 946.969 79.6056 946.969 78.3217C946.975 75.5126 944.642 73.2067 941.807 73.2119H935.544V73.2172ZM979.493 73.301C974.378 73.301 970.217 77.4569 970.217 82.5771C970.217 87.6973 974.378 91.869 979.493 91.869C984.614 91.869 988.775 87.6973 988.769 82.5771C988.769 77.4569 984.614 73.301 979.493 73.301ZM958.509 73.3325C953.384 73.3325 949.244 77.4989 949.249 82.6295C949.249 87.7445 953.379 91.8952 958.509 91.8899C963.64 91.8899 967.786 87.7445 967.786 82.6295C967.786 77.5041 963.64 73.3325 958.509 73.3325ZM1026.81 73.3325C1021.67 73.3325 1017.49 77.5146 1017.49 82.661C1017.49 87.7969 1021.66 91.9738 1026.81 91.9738C1031.94 91.9738 1036.12 87.7969 1036.12 82.661C1036.12 77.5146 1031.95 73.3325 1026.81 73.3325ZM938.065 77.4307H940.392C941.168 77.4307 941.791 78.0439 941.791 78.83C941.791 79.5952 941.163 80.1978 940.392 80.1978C940.319 80.1978 938.065 80.2136 938.065 80.2136V77.4307ZM1011.3 78.6518C1009.23 78.6518 1007.56 80.3393 1007.56 82.4094C1007.56 84.4795 1009.23 86.167 1011.3 86.167C1013.37 86.167 1015.06 84.4795 1015.06 82.4094C1015.05 80.3446 1013.36 78.6518 1011.3 78.6518ZM979.493 78.7357C981.621 78.7357 983.351 80.4599 983.351 82.5929C983.351 84.7154 981.621 86.4343 979.493 86.4343C977.366 86.4343 975.652 84.7049 975.652 82.5771C975.647 80.4599 977.36 78.7409 979.478 78.7357H979.493ZM958.509 78.7671C960.632 78.7671 962.367 80.4913 962.367 82.6243C962.367 84.752 960.637 86.471 958.509 86.4658C956.403 86.471 954.673 84.752 954.668 82.6243C954.668 80.4913 956.397 78.7671 958.509 78.7671ZM1026.81 78.7986C1028.94 78.7986 1030.66 80.5123 1030.66 82.6557C1030.66 84.7835 1028.93 86.5129 1026.81 86.5129C1024.67 86.5129 1022.94 84.7835 1022.95 82.6557C1022.94 80.528 1024.66 78.8038 1026.79 78.7986H1026.81ZM938.065 84.1703L941.026 84.186C941.833 84.186 942.494 84.8254 942.494 85.6325C942.488 86.4501 941.839 87.0999 941.026 87.0999H938.081L938.065 84.1703ZM1061.04 87.0999C1059.69 87.0999 1058.61 88.1847 1058.61 89.5421C1058.62 90.9047 1059.68 91.9843 1061.04 91.9843C1062.39 91.9843 1063.48 90.8994 1063.48 89.5421C1063.49 88.1952 1062.4 87.1051 1061.05 87.0999C1061.05 87.0999 1061.04 87.0999 1061.04 87.0999ZM1061.04 87.3462C1062.24 87.3462 1063.24 88.3262 1063.24 89.5421C1063.24 90.7527 1062.24 91.738 1061.04 91.738C1059.83 91.738 1058.86 90.7475 1058.86 89.5421C1058.86 88.3262 1059.83 87.3462 1061.04 87.3462ZM1059.93 88.0956V90.9256H1060.52V89.8199H1061.12C1061.3 89.8199 1061.42 89.8408 1061.48 89.9037C1061.54 89.9561 1061.58 90.0819 1061.58 90.2601V90.5221C1061.58 90.6112 1061.59 90.6846 1061.59 90.7684C1061.61 90.8156 1061.63 90.8732 1061.64 90.9309H1062.29V90.868C1062.23 90.8366 1062.19 90.7632 1062.18 90.6898C1062.17 90.6426 1062.16 90.5588 1062.16 90.4278V90.2496C1062.16 90.0504 1062.13 89.9037 1062.08 89.8094C1062.02 89.7098 1061.92 89.6364 1061.8 89.584C1061.95 89.5316 1062.08 89.4373 1062.14 89.3063C1062.21 89.1805 1062.23 89.0495 1062.24 88.9132C1062.24 88.7979 1062.22 88.7088 1062.19 88.6197C1062.15 88.5306 1062.09 88.452 1062.03 88.3734C1061.96 88.2843 1061.87 88.2214 1061.77 88.1795C1061.66 88.1323 1061.52 88.1061 1061.33 88.0956H1059.93ZM1060.52 88.5988H1061.2C1061.33 88.5988 1061.42 88.6145 1061.48 88.6459C1061.59 88.7036 1061.66 88.8136 1061.66 88.9866C1061.66 89.1386 1061.59 89.2434 1061.48 89.2958C1061.41 89.3272 1061.32 89.3429 1061.19 89.3429H1060.52V88.5988Z" fill="#CCCCCC"/>
</g>
<line x1="1144.76" y1="60" x2="1144.76" y2="92" stroke="#E6E6E6"/>
<path fill-rule="evenodd" clip-rule="evenodd" d="M1225.83 85.5529L1233.54 85.4493L1233.56 85.4044L1225.25 84.0751L1225.21 83.9148L1232.17 83.8153C1232.17 83.8153 1232.12 83.6769 1231.94 83.3339L1224.78 82.193L1224.75 82.0327L1231.45 81.9362L1231.35 81.4686L1224.55 80.4537L1224.55 80.2562L1231.15 80.1612L1231.1 79.6748L1224.5 78.59L1224.51 78.4287L1231.1 78.3337C1231.06 78.1454 1231.12 77.7645 1231.12 77.7645L1224.6 76.7722L1224.63 76.6098L1231.22 76.5333C1231.22 76.4393 1231.25 76.0937 1231.25 76.0937L1224.84 74.9426L1224.87 74.7808L1231.52 74.6848C1231.52 74.6848 1231.56 74.3203 1231.64 74.1309L1225.23 73.1529L1225.28 72.9905L1231.94 72.8945C1231.94 72.8945 1232.08 72.5086 1232.16 72.3662L1225.78 71.4039L1225.82 71.26L1232.6 71.1625C1232.6 71.1625 1232.79 70.7546 1232.84 70.6443L1226.51 69.6647L1226.58 69.5203L1233.47 69.4212C1233.47 69.4212 1233.66 69.0583 1233.83 68.8046L1227.5 67.8255L1227.57 67.6989L1234.66 67.6146C1234.66 67.6146 1234.87 67.2787 1235.06 67.1036L1228.67 66.146L1228.79 66.001L1236.04 65.8969C1236.04 65.8969 1236.32 65.5885 1236.52 65.4288L1230.24 64.4696L1230.34 64.3246L1237.72 64.2123L1238.21 63.784L1232.48 62.5471L1232.47 62.5486C1234.93 60.9917 1237.97 60.0508 1241.65 60.0018C1248.48 59.9094 1254.25 63.2904 1254.44 71.2288L1245.56 71.3483C1245.26 68.534 1243.59 67.5748 1241.2 67.607C1236.03 67.6764 1233.8 73.2141 1233.87 78.4654C1233.92 82.0505 1235.49 84.4207 1239.29 84.3686C1241.81 84.3349 1243.93 83.4105 1244.83 80.9219L1240.57 80.9785L1241.84 74.4291L1254.31 74.2611L1251.03 91.084L1245.1 91.1636L1245.32 88.2156L1245.23 88.1309C1243.3 90.8038 1240.29 91.9544 1237.04 91.9983C1230.7 92.084 1227.42 88.9471 1225.84 85.5785L1225.83 85.5529ZM1271.57 74.4944C1270.66 73.9574 1269.53 73.5873 1268.08 73.6041C1266.28 73.6245 1264.31 74.3591 1264.34 76.6313C1264.38 79.8345 1270.89 79.7871 1270.95 84.7969C1270.98 87.6714 1269.02 90.9528 1264.42 91.0054C1262.2 91.0314 1260.61 90.5567 1259.07 89.9717L1259.92 87.4433C1261.05 88.1421 1262.62 88.6169 1263.96 88.602C1266.86 88.5684 1268.07 86.7475 1268.05 85.1594C1268.01 81.2721 1261.5 82.0316 1261.44 76.7206C1261.4 73.2432 1264.55 71.2355 1267.7 71.1992C1269.29 71.1809 1270.85 71.4642 1272.31 72.0497L1271.57 74.4944ZM1282.51 90.2218C1281.18 90.5659 1279.78 90.8283 1278.39 90.8441C1274.99 90.8829 1271.94 89.55 1271.88 84.6218C1271.84 80.7616 1274.49 76.2678 1279.42 76.2106C1282.79 76.1718 1284.7 78.176 1284.74 81.489C1284.75 82.4191 1284.65 83.2149 1284.52 84.0373L1274.69 84.1512C1274.64 84.4408 1274.62 84.7346 1274.62 85.0287C1274.66 87.9578 1276.47 88.7853 1278.96 88.7567C1280.25 88.7419 1281.64 88.3979 1282.9 87.8624L1282.51 90.2218ZM1282.09 82.1491C1282.14 81.7381 1282.17 81.4094 1282.16 81.0801C1282.14 79.4379 1281.12 78.2725 1279.17 78.2944C1277.07 78.3184 1275.47 80.172 1274.95 82.2318L1282.09 82.1491ZM1286.4 78.5936C1286.51 78.0172 1286.66 77.2765 1286.76 76.4541L1289.17 76.4261L1288.76 78.6487H1288.81C1289.62 77.3245 1291.11 76.0754 1293.55 76.0473C1293.79 76.0442 1294.23 76.0942 1294.73 76.2806L1294.18 78.5588C1293.68 78.3735 1293.27 78.2954 1293.08 78.2985C1289.91 78.3342 1288.38 81.8019 1288.05 83.5309L1286.68 90.4194L1284.1 90.4495L1286.4 78.5936ZM1295.52 76.352L1298.1 76.3229L1295.3 90.3193L1292.73 90.3494L1295.52 76.352ZM1298.91 73.1922L1296.01 73.2253L1296.58 70.3161L1299.48 70.2829L1298.91 73.1922ZM1308.33 89.9227C1306.99 90.2667 1305.6 90.5291 1304.2 90.5449C1300.8 90.5848 1297.75 89.2509 1297.69 84.3227C1297.65 80.4624 1300.31 75.9687 1305.24 75.9115C1308.6 75.8732 1310.51 77.8779 1310.55 81.1899C1310.56 82.121 1310.46 82.9158 1310.34 83.7392L1300.51 83.852C1300.46 84.1417 1300.43 84.4354 1300.44 84.7295C1300.47 87.6587 1302.29 88.4862 1304.78 88.4576C1306.06 88.4438 1307.46 88.0987 1308.71 87.5642L1308.33 89.9227ZM1307.9 81.8499C1307.96 81.439 1307.98 81.1102 1307.97 80.781C1307.96 79.1388 1306.93 77.9733 1304.99 77.9953C1302.88 78.0203 1301.28 79.8728 1300.76 81.9326L1307.9 81.8499Z" fill="#CCCCCC"/>
<path fill-rule="evenodd" clip-rule="evenodd" d="M1319.26 78.5424C1318.54 78.1943 1317.41 77.8512 1316.46 77.8625C1315.33 77.8752 1313.86 78.1933 1313.87 79.5904C1313.9 81.9713 1318.67 82.0259 1318.71 85.9138C1318.75 89.2819 1315.67 90.4121 1313.48 90.4371C1311.26 90.4632 1310.44 90.1712 1309.39 89.8271L1309.86 87.6045C1310.88 88.0032 1311.95 88.3743 1313.07 88.361C1314.47 88.3452 1316 87.752 1315.98 86.1644C1315.95 83.7825 1311.18 83.4813 1311.14 79.9498C1311.11 76.9926 1314.05 75.8088 1316.35 75.7822C1317.58 75.768 1318.84 76.0543 1320 76.5066L1319.26 78.5424Z" fill="#CCCCCC"/>
<defs>
<clipPath id="clip0_629_3283">
<rect width="82.6446" height="32" fill="white" transform="translate(689.883 60)"/>
</clipPath>
<clipPath id="clip1_629_3283">
<rect width="131.019" height="32" fill="white" transform="translate(933.003 60)"/>
</clipPath>
</defs>
</svg>
