<svg width="32" height="30" viewBox="0 0 32 30" fill="none" xmlns="http://www.w3.org/2000/svg">
<path d="M31.2749 3.34259C27.4022 3.34259 21.9311 3.66662 19.1352 6.46105C17.9247 7.67155 17.3202 9.6449 17.4771 11.8785C17.4975 12.1735 17.6937 12.4248 17.9756 12.5179C18.256 12.6094 18.5641 12.5237 18.7559 12.2985C20.3108 10.4689 22.2435 9.00269 24.5046 7.94041C24.6964 7.84886 24.9231 7.84157 25.1295 7.91425C25.3111 7.97965 25.4535 8.10314 25.5276 8.26158C25.6816 8.58711 25.6322 9.01577 25.1207 9.25697C25.0917 9.27148 25.0655 9.29042 25.0365 9.3035C25.0263 9.30786 25.0147 9.30643 25.006 9.31079C19.4346 11.9294 16.6954 16.4981 15.4514 21.1962C14.5446 15.3138 12.6294 11.8509 10.8202 9.72494C9.51095 8.02767 8.22341 7.12812 7.47943 6.61956C7.34136 6.52508 6.92435 6.24028 6.7514 6.06733C6.46803 5.78397 6.46803 5.32329 6.7514 5.03993C7.03477 4.75799 7.49687 4.75799 7.81218 5.07187C7.88923 5.14019 8.01272 5.22738 8.16966 5.33201L8.29902 5.4192C9.35108 6.13995 11.31 7.47831 13.0479 10.3599C13.2034 10.6171 13.5042 10.7552 13.7963 10.7C14.0928 10.6476 14.3252 10.4195 14.3834 10.1245C14.7627 8.18747 14.5927 5.31308 12.8649 3.58529C10.069 0.792294 4.59789 0.468262 0.726671 0.468262C0.32553 0.468194 0 0.793724 0 1.1948C0 5.06745 0.324032 10.5386 3.11846 13.3345C4.28387 14.4999 6.08147 15.0231 7.86736 15.0231C9.32486 15.0231 10.7533 14.6583 11.8476 14.0262C13.3399 17.1185 14.5316 21.7381 14.5316 28.8048C14.5316 29.2059 14.8571 29.5314 15.2582 29.5314C15.6592 29.5314 15.9848 29.2059 15.9848 28.8048C15.9848 24.8624 16.6605 20.1309 19.173 16.2364C20.18 17.2202 21.9137 17.8437 23.8347 17.9018C23.9306 17.9047 24.0251 17.9061 24.1195 17.9061C26.0711 17.9061 27.796 17.2944 28.8815 16.2073C31.6773 13.4115 31.9999 7.94034 31.9999 4.06763C32.0015 3.66662 31.6774 3.34259 31.2749 3.34259Z" fill="#00B307"/>
</svg>
